# xmcd
#
# Track frame offsets:
#	150
#	17538
#	33881
#	45172
#	61248
#	77260
#	95679
#	111551
#	128791
#	145055
#	160288
#	175880
#	193042
#	209411
#	227312
#	243519
#	262834
#	277755
#	291991
#	305775
#
# Disc length: 4267 seconds
#
# Revision: 1
# Processed by: cddbd v1.5.2PL0 Copyright (c) Steve Scherf et al.
# Submitted via: EasyCDDAExtractor 7.0.3.1
#
DISCID=0b10a914
DTITLE=Various Artist - CDX-439 January 2008
DYEAR=2008
DGENRE=Country
TTITLE0=Josh Turner and Trisha Yearwood - Another Try
TTITLE1=Shelby Lynne - Anyone Who Had A Heart
TTITLE2=Ryan Adams - Everybody Knows
TTITLE3=Jypsi - I Don't Love You Like That
TTITLE4=Keith Anderson - I Still Miss You
TTITLE5=Sara Evans - Some Things Never Change
TTITLE6=Carter's Chord - Young Love
TTITLE7=Trace Adkins - You're Gonna Miss This
TTITLE8=John Fogerty - Gunslinger
TTITLE9=Doug Stone - She Always Get What She Wants
TTITLE10=Sara Lynn - A Thing or Two
TTITLE11=Tift Merritt - Broken 
TTITLE12=Zane Lewis - Come With Me
TTITLE13=The Roys - GrandPa's Barn
TTITLE14=Rick Huckaby - I Got You Covered
TTITLE15=Indian Rodeo - Radio
TTITLE16=Smith and Harley - Ride to Live, Live to Ride
TTITLE17=Sammy Sadler - Trying to Get the Girl
TTITLE18=Correna Ann - What Do You Bet
TTITLE19=Katie Chance - Love In My Pocket
EXTD=
EXTT0=
EXTT1=
EXTT2=
EXTT3=
EXTT4=
EXTT5=
EXTT6=
EXTT7=
EXTT8=
EXTT9=
EXTT10=
EXTT11=
EXTT12=
EXTT13=
EXTT14=
EXTT15=
EXTT16=
EXTT17=
EXTT18=
EXTT19=
PLAYORDER=
